<svg width="1920" height="1080" viewBox="0 0 1920 1080" fill="none" xmlns="http://www.w3.org/2000/svg">
<g clip-path="url(#clip0_1191_235)">
<path d="M416.308 -67V827M330.704 -67V827M245.099 -67V827M159.494 -67V827M73.8892 -67V827M553 670.921H-20M553 582.868H-20M553 496.196H-20M553 411.941H-20M553 327.686H-20M553 243.431H-20M553 158.14H-20M553 73.8853H-20" stroke="#101010" stroke-width="3"/>
<path d="M673.308 -67V827M587.704 -67V827M502.099 -67V827M416.494 -67V827M330.889 -67V827M810 670.921H237M810 582.868H237M810 496.196H237M810 411.941H237M810 327.686H237M810 243.431H237M810 158.14H237M810 73.8853H237" stroke="#101010" stroke-width="3"/>
<path d="M930.308 -67V827M844.704 -67V827M759.099 -67V827M673.494 -67V827M587.889 -67V827M1067 670.921H494M1067 582.868H494M1067 496.196H494M1067 411.941H494M1067 327.686H494M1067 243.431H494M1067 158.14H494M1067 73.8853H494" stroke="#101010" stroke-width="3"/>
<path d="M1187.31 -67V827M1101.7 -67V827M1016.1 -67V827M930.494 -67V827M844.889 -67V827M1324 670.921H751M1324 582.868H751M1324 496.196H751M1324 411.941H751M1324 327.686H751M1324 243.431H751M1324 158.14H751M1324 73.8853H751" stroke="#101010" stroke-width="3"/>
<path d="M1187.31 -67V827M1101.7 -67V827M1016.1 -67V827M930.494 -67V827M844.889 -67V827M1324 670.921H751M1324 582.868H751M1324 496.196H751M1324 411.941H751M1324 327.686H751M1324 243.431H751M1324 158.14H751M1324 73.8853H751" stroke="#101010" stroke-width="3"/>
<path d="M1444.31 -67V827M1358.7 -67V827M1273.1 -67V827M1187.49 -67V827M1101.89 -67V827M1581 670.921H1008M1581 582.868H1008M1581 496.196H1008M1581 411.941H1008M1581 327.686H1008M1581 243.431H1008M1581 158.14H1008M1581 73.8853H1008" stroke="#101010" stroke-width="3"/>
<path d="M1701.31 -67V827M1615.7 -67V827M1530.1 -67V827M1444.49 -67V827M1358.89 -67V827M1838 670.921H1265M1838 582.868H1265M1838 496.196H1265M1838 411.941H1265M1838 327.686H1265M1838 243.431H1265M1838 158.14H1265M1838 73.8853H1265" stroke="#101010" stroke-width="3"/>
<path d="M1958.31 -67V827M1872.7 -67V827M1787.1 -67V827M1701.49 -67V827M1615.89 -67V827M2095 670.921H1522M2095 582.868H1522M2095 496.196H1522M2095 411.941H1522M2095 327.686H1522M2095 243.431H1522M2095 158.14H1522M2095 73.8853H1522" stroke="#101010" stroke-width="3"/>
<path d="M416.308 530V1424M330.704 530V1424M245.099 530V1424M159.494 530V1424M73.8892 530V1424M553 1267.92H-20M553 1179.87H-20M553 1093.2H-20M553 1008.94H-20M553 924.686H-20M553 840.431H-20M553 755.14H-20M553 670.885H-20" stroke="#101010" stroke-width="3"/>
<path d="M673.308 530V1424M587.704 530V1424M502.099 530V1424M416.494 530V1424M330.889 530V1424M810 1267.92H237M810 1179.87H237M810 1093.2H237M810 1008.94H237M810 924.686H237M810 840.431H237M810 755.14H237M810 670.885H237" stroke="#101010" stroke-width="3"/>
<path d="M930.308 530V1424M844.704 530V1424M759.099 530V1424M673.494 530V1424M587.889 530V1424M1067 1267.92H494M1067 1179.87H494M1067 1093.2H494M1067 1008.94H494M1067 924.686H494M1067 840.431H494M1067 755.14H494M1067 670.885H494" stroke="#101010" stroke-width="3"/>
<path d="M1187.31 530V1424M1101.7 530V1424M1016.1 530V1424M930.494 530V1424M844.889 530V1424M1324 1267.92H751M1324 1179.87H751M1324 1093.2H751M1324 1008.94H751M1324 924.686H751M1324 840.431H751M1324 755.14H751M1324 670.885H751" stroke="#101010" stroke-width="3"/>
<path d="M1187.31 530V1424M1101.7 530V1424M1016.1 530V1424M930.494 530V1424M844.889 530V1424M1324 1267.92H751M1324 1179.87H751M1324 1093.2H751M1324 1008.94H751M1324 924.686H751M1324 840.431H751M1324 755.14H751M1324 670.885H751" stroke="#101010" stroke-width="3"/>
<path d="M1444.31 530V1424M1358.7 530V1424M1273.1 530V1424M1187.49 530V1424M1101.89 530V1424M1581 1267.92H1008M1581 1179.87H1008M1581 1093.2H1008M1581 1008.94H1008M1581 924.686H1008M1581 840.431H1008M1581 755.14H1008M1581 670.885H1008" stroke="#101010" stroke-width="3"/>
<path d="M1701.31 530V1424M1615.7 530V1424M1530.1 530V1424M1444.49 530V1424M1358.89 530V1424M1838 1267.92H1265M1838 1179.87H1265M1838 1093.2H1265M1838 1008.94H1265M1838 924.686H1265M1838 840.431H1265M1838 755.14H1265M1838 670.885H1265" stroke="#101010" stroke-width="3"/>
<path d="M1958.31 530V1424M1872.7 530V1424M1787.1 530V1424M1701.49 530V1424M1615.89 530V1424M2095 1267.92H1522M2095 1179.87H1522M2095 1093.2H1522M2095 1008.94H1522M2095 924.686H1522M2095 840.431H1522M2095 755.14H1522M2095 670.885H1522" stroke="#101010" stroke-width="3"/>
<rect y="1080" width="1080" height="1920" transform="rotate(-90 0 1080)" fill="url(#paint0_linear_1191_235)"/>
</g>
<defs>
<linearGradient id="paint0_linear_1191_235" x1="40" y1="2040" x2="747.5" y2="2040" gradientUnits="userSpaceOnUse">
<stop stop-color="#09090B"/>
<stop offset="1" stop-color="#09090B" stop-opacity="0"/>
</linearGradient>
<clipPath id="clip0_1191_235">
<rect width="1920" height="1080" fill="white"/>
</clipPath>
</defs>
</svg>
