<svg width="1920" height="1080" viewBox="0 0 1920 1080" fill="none" xmlns="http://www.w3.org/2000/svg">
<g clip-path="url(#clip0_1195_234)">
<g clip-path="url(#clip1_1195_234)">
<path d="M21.5625 0.659668H-1.5625V23.7846H21.5625V0.659668Z" fill="#101010"/>
<path d="M127.118 0.659668H103.993V23.7846H127.118V0.659668Z" stroke="#101010" stroke-width="2"/>
<path d="M232.674 0.659668H209.549V23.7846H232.674V0.659668Z" fill="#101010"/>
<path d="M338.229 0.659668H315.104V23.7846H338.229V0.659668Z" fill="#101010"/>
<path d="M443.785 0.659668H420.66V23.7846H443.785V0.659668Z" fill="#101010"/>
<path d="M549.34 0.659668H526.215V23.7846H549.34V0.659668Z" stroke="#101010" stroke-width="2"/>
<path d="M654.896 0.659668H631.771V23.7846H654.896V0.659668Z" fill="#101010"/>
<path d="M760.451 0.659668H737.326V23.7846H760.451V0.659668Z" fill="#101010"/>
<path d="M866.007 0.659668H842.882V23.7846H866.007V0.659668Z" fill="#101010"/>
<path d="M971.562 0.659668H948.438V23.7846H971.562V0.659668Z" fill="#101010"/>
<path d="M1077.12 0.659668H1053.99V23.7846H1077.12V0.659668Z" fill="#101010"/>
<path d="M1182.67 0.659668H1159.55V23.7846H1182.67V0.659668Z" fill="#101010"/>
<path d="M1288.23 0.659668H1265.1V23.7846H1288.23V0.659668Z" stroke="#101010" stroke-width="2"/>
<path d="M1393.79 0.659668H1370.66V23.7846H1393.79V0.659668Z" fill="#101010"/>
<path d="M1499.34 0.659668H1476.21V23.7846H1499.34V0.659668Z" fill="#101010"/>
<path d="M1604.9 0.659668H1581.77V23.7846H1604.9V0.659668Z" fill="#101010"/>
<path d="M1710.45 0.659668H1687.33V23.7846H1710.45V0.659668Z" fill="#101010"/>
<path d="M1816.01 0.659668H1792.88V23.7846H1816.01V0.659668Z" fill="#101010"/>
<path d="M1921.56 0.659668H1898.44V23.7846H1921.56V0.659668Z" fill="#101010"/>
<path d="M21.5625 106.215H-1.5625V129.34H21.5625V106.215Z" fill="#101010"/>
<path d="M127.118 106.215H103.993V129.34H127.118V106.215Z" stroke="#101010" stroke-width="2"/>
<path d="M232.674 106.215H209.549V129.34H232.674V106.215Z" fill="#101010"/>
<path d="M338.229 106.215H315.104V129.34H338.229V106.215Z" fill="#101010"/>
<path d="M443.785 106.215H420.66V129.34H443.785V106.215Z" fill="#101010"/>
<path d="M549.34 106.215H526.215V129.34H549.34V106.215Z" fill="#101010"/>
<path d="M654.896 106.215H631.771V129.34H654.896V106.215Z" fill="#101010"/>
<path d="M760.451 106.215H737.326V129.34H760.451V106.215Z" fill="#101010"/>
<path d="M866.007 106.215H842.882V129.34H866.007V106.215Z" fill="#101010"/>
<path d="M971.562 106.215H948.438V129.34H971.562V106.215Z" stroke="#101010" stroke-width="2"/>
<path d="M1077.12 106.215H1053.99V129.34H1077.12V106.215Z" fill="#101010"/>
<path d="M1182.67 106.215H1159.55V129.34H1182.67V106.215Z" fill="#101010"/>
<path d="M1288.23 106.215H1265.1V129.34H1288.23V106.215Z" fill="#101010"/>
<path d="M1393.79 106.215H1370.66V129.34H1393.79V106.215Z" fill="#101010"/>
<path d="M1499.34 106.215H1476.21V129.34H1499.34V106.215Z" fill="#101010"/>
<path d="M1604.9 106.215H1581.77V129.34H1604.9V106.215Z" fill="#101010"/>
<path d="M1710.45 106.215H1687.33V129.34H1710.45V106.215Z" fill="#101010"/>
<path d="M1816.01 106.215H1792.88V129.34H1816.01V106.215Z" fill="#101010"/>
<path d="M1921.56 106.215H1898.44V129.34H1921.56V106.215Z" fill="#101010"/>
<path d="M21.5625 211.771H-1.5625V234.896H21.5625V211.771Z" fill="#101010"/>
<path d="M127.118 211.771H103.993V234.896H127.118V211.771Z" fill="#101010"/>
<path d="M232.674 211.771H209.549V234.896H232.674V211.771Z" stroke="#101010" stroke-width="2"/>
<path d="M338.229 211.771H315.104V234.896H338.229V211.771Z" fill="#101010"/>
<path d="M443.785 211.771H420.66V234.896H443.785V211.771Z" fill="#101010"/>
<path d="M549.34 211.771H526.215V234.896H549.34V211.771Z" fill="#101010"/>
<path d="M654.896 211.771H631.771V234.896H654.896V211.771Z" fill="#101010"/>
<path d="M760.451 211.771H737.326V234.896H760.451V211.771Z" stroke="#101010" stroke-width="2"/>
<path d="M866.007 211.771H842.882V234.896H866.007V211.771Z" fill="#101010"/>
<path d="M971.562 211.771H948.438V234.896H971.562V211.771Z" fill="#101010"/>
<path d="M1077.12 211.771H1053.99V234.896H1077.12V211.771Z" fill="#101010"/>
<path d="M1182.67 211.771H1159.55V234.896H1182.67V211.771Z" fill="#101010"/>
<path d="M1288.23 211.771H1265.1V234.896H1288.23V211.771Z" fill="#101010"/>
<path d="M1393.79 211.771H1370.66V234.896H1393.79V211.771Z" fill="#101010"/>
<path d="M1499.34 211.771H1476.21V234.896H1499.34V211.771Z" fill="#101010"/>
<path d="M1604.9 211.771H1581.77V234.896H1604.9V211.771Z" fill="#101010"/>
<path d="M1710.45 211.771H1687.33V234.896H1710.45V211.771Z" fill="#101010"/>
<path d="M1816.01 211.771H1792.88V234.896H1816.01V211.771Z" fill="#101010"/>
<path d="M1921.56 211.771H1898.44V234.896H1921.56V211.771Z" fill="#101010"/>
<path d="M21.5625 317.326H-1.5625V340.451H21.5625V317.326Z" fill="#101010"/>
<path d="M127.118 317.326H103.993V340.451H127.118V317.326Z" fill="#101010"/>
<path d="M232.674 317.326H209.549V340.451H232.674V317.326Z" stroke="#101010" stroke-width="2"/>
<path d="M338.229 317.326H315.104V340.451H338.229V317.326Z" fill="#101010"/>
<path d="M443.785 317.326H420.66V340.451H443.785V317.326Z" stroke="#101010" stroke-width="2"/>
<path d="M549.34 317.326H526.215V340.451H549.34V317.326Z" stroke="#101010" stroke-width="2"/>
<path d="M654.896 317.326H631.771V340.451H654.896V317.326Z" fill="#101010"/>
<path d="M760.451 317.326H737.326V340.451H760.451V317.326Z" fill="#101010"/>
<path d="M866.007 317.326H842.882V340.451H866.007V317.326Z" fill="#101010"/>
<path d="M971.562 317.326H948.438V340.451H971.562V317.326Z" fill="#101010"/>
<path d="M1077.12 317.326H1053.99V340.451H1077.12V317.326Z" stroke="#101010" stroke-width="2"/>
<path d="M1182.67 317.326H1159.55V340.451H1182.67V317.326Z" fill="#101010"/>
<path d="M1288.23 317.326H1265.1V340.451H1288.23V317.326Z" fill="#101010"/>
<path d="M1393.79 317.326H1370.66V340.451H1393.79V317.326Z" fill="#101010"/>
<path d="M1499.34 317.326H1476.21V340.451H1499.34V317.326Z" fill="#101010"/>
<path d="M1604.9 317.326H1581.77V340.451H1604.9V317.326Z" fill="#101010"/>
<path d="M1710.45 317.326H1687.33V340.451H1710.45V317.326Z" fill="#101010"/>
<path d="M1816.01 317.326H1792.88V340.451H1816.01V317.326Z" fill="#101010"/>
<path d="M1921.56 317.326H1898.44V340.451H1921.56V317.326Z" fill="#101010"/>
<path d="M21.5625 422.882H-1.5625V446.007H21.5625V422.882Z" fill="#101010"/>
<path d="M127.118 422.882H103.993V446.007H127.118V422.882Z" fill="#101010"/>
<path d="M232.674 422.882H209.549V446.007H232.674V422.882Z" fill="#101010"/>
<path d="M338.229 422.882H315.104V446.007H338.229V422.882Z" stroke="#101010" stroke-width="2"/>
<path d="M443.785 422.882H420.66V446.007H443.785V422.882Z" fill="#101010"/>
<path d="M549.34 422.882H526.215V446.007H549.34V422.882Z" fill="#101010"/>
<path d="M654.896 422.882H631.771V446.007H654.896V422.882Z" fill="#101010"/>
<path d="M760.451 422.882H737.326V446.007H760.451V422.882Z" stroke="#101010" stroke-width="2"/>
<path d="M866.007 422.882H842.882V446.007H866.007V422.882Z" stroke="#101010" stroke-width="2"/>
<path d="M971.562 422.882H948.438V446.007H971.562V422.882Z" fill="#101010"/>
<path d="M1077.12 422.882H1053.99V446.007H1077.12V422.882Z" fill="#101010"/>
<path d="M1182.67 422.882H1159.55V446.007H1182.67V422.882Z" stroke="#101010" stroke-width="2"/>
<path d="M1288.23 422.882H1265.1V446.007H1288.23V422.882Z" stroke="#101010" stroke-width="2"/>
<path d="M1393.79 422.882H1370.66V446.007H1393.79V422.882Z" fill="#101010"/>
<path d="M1499.34 422.882H1476.21V446.007H1499.34V422.882Z" fill="#101010"/>
<path d="M1604.9 422.882H1581.77V446.007H1604.9V422.882Z" stroke="#101010" stroke-width="2"/>
<path d="M1710.45 422.882H1687.33V446.007H1710.45V422.882Z" fill="#101010"/>
<path d="M1816.01 422.882H1792.88V446.007H1816.01V422.882Z" fill="#101010"/>
<path d="M1921.56 422.882H1898.44V446.007H1921.56V422.882Z" fill="#101010"/>
<path d="M21.5625 528.438H-1.5625V551.562H21.5625V528.438Z" fill="#101010"/>
<path d="M127.118 528.438H103.993V551.562H127.118V528.438Z" fill="#101010"/>
<path d="M232.674 528.438H209.549V551.562H232.674V528.438Z" fill="#101010"/>
<path d="M338.229 528.438H315.104V551.562H338.229V528.438Z" stroke="#101010" stroke-width="2"/>
<path d="M443.785 528.438H420.66V551.562H443.785V528.438Z" fill="#101010"/>
<path d="M549.34 528.438H526.215V551.562H549.34V528.438Z" fill="#101010"/>
<path d="M654.896 528.438H631.771V551.562H654.896V528.438Z" stroke="#101010" stroke-width="2"/>
<path d="M760.451 528.438H737.326V551.562H760.451V528.438Z" fill="#101010"/>
<path d="M866.007 528.438H842.882V551.562H866.007V528.438Z" fill="#101010"/>
<path d="M971.562 528.438H948.438V551.562H971.562V528.438Z" fill="#101010"/>
<path d="M1077.12 528.438H1053.99V551.562H1077.12V528.438Z" fill="#101010"/>
<path d="M1182.67 528.438H1159.55V551.562H1182.67V528.438Z" fill="#101010"/>
<path d="M1288.23 528.438H1265.1V551.562H1288.23V528.438Z" fill="#101010"/>
<path d="M1393.79 528.438H1370.66V551.562H1393.79V528.438Z" fill="#101010"/>
<path d="M1499.34 528.438H1476.21V551.562H1499.34V528.438Z" fill="#101010"/>
<path d="M1604.9 528.438H1581.77V551.562H1604.9V528.438Z" stroke="#101010" stroke-width="2"/>
<path d="M1710.45 528.438H1687.33V551.562H1710.45V528.438Z" fill="#101010"/>
<path d="M1816.01 528.438H1792.88V551.562H1816.01V528.438Z" stroke="#101010" stroke-width="2"/>
<path d="M1921.56 528.438H1898.44V551.562H1921.56V528.438Z" fill="#101010"/>
<path d="M21.5625 633.993H-1.5625V657.118H21.5625V633.993Z" fill="#101010"/>
<path d="M127.118 633.993H103.993V657.118H127.118V633.993Z" fill="#101010"/>
<path d="M232.674 633.993H209.549V657.118H232.674V633.993Z" fill="#101010"/>
<path d="M338.229 633.993H315.104V657.118H338.229V633.993Z" stroke="#101010" stroke-width="2"/>
<path d="M443.785 633.993H420.66V657.118H443.785V633.993Z" fill="#101010"/>
<path d="M549.34 633.993H526.215V657.118H549.34V633.993Z" fill="#101010"/>
<path d="M654.896 633.993H631.771V657.118H654.896V633.993Z" fill="#101010"/>
<path d="M760.451 633.993H737.326V657.118H760.451V633.993Z" stroke="#101010" stroke-width="2"/>
<path d="M866.007 633.993H842.882V657.118H866.007V633.993Z" fill="#101010"/>
<path d="M971.562 633.993H948.438V657.118H971.562V633.993Z" fill="#101010"/>
<path d="M1077.12 633.993H1053.99V657.118H1077.12V633.993Z" fill="#101010"/>
<path d="M1182.67 633.993H1159.55V657.118H1182.67V633.993Z" fill="#101010"/>
<path d="M1288.23 633.993H1265.1V657.118H1288.23V633.993Z" fill="#101010"/>
<path d="M1393.79 633.993H1370.66V657.118H1393.79V633.993Z" fill="#101010"/>
<path d="M1499.34 633.993H1476.21V657.118H1499.34V633.993Z" fill="#101010"/>
<path d="M1604.9 633.993H1581.77V657.118H1604.9V633.993Z" fill="#101010"/>
<path d="M1710.45 633.993H1687.33V657.118H1710.45V633.993Z" fill="#101010"/>
<path d="M1816.01 633.993H1792.88V657.118H1816.01V633.993Z" stroke="#101010" stroke-width="2"/>
<path d="M1921.56 633.993H1898.44V657.118H1921.56V633.993Z" fill="#101010"/>
<path d="M21.5625 739.549H-1.5625V762.674H21.5625V739.549Z" fill="#101010"/>
<path d="M127.118 739.549H103.993V762.674H127.118V739.549Z" fill="#101010"/>
<path d="M232.674 739.549H209.549V762.674H232.674V739.549Z" fill="#101010"/>
<path d="M338.229 739.549H315.104V762.674H338.229V739.549Z" fill="#101010"/>
<path d="M443.785 739.549H420.66V762.674H443.785V739.549Z" fill="#101010"/>
<path d="M549.34 739.549H526.215V762.674H549.34V739.549Z" stroke="#101010" stroke-width="2"/>
<path d="M654.896 739.549H631.771V762.674H654.896V739.549Z" fill="#101010"/>
<path d="M760.451 739.549H737.326V762.674H760.451V739.549Z" stroke="#101010" stroke-width="2"/>
<path d="M866.007 739.549H842.882V762.674H866.007V739.549Z" stroke="#101010" stroke-width="2"/>
<path d="M971.562 739.549H948.438V762.674H971.562V739.549Z" stroke="#101010" stroke-width="2"/>
<path d="M1077.12 739.549H1053.99V762.674H1077.12V739.549Z" stroke="#101010" stroke-width="2"/>
<path d="M1182.67 739.549H1159.55V762.674H1182.67V739.549Z" fill="#101010"/>
<path d="M1288.23 739.549H1265.1V762.674H1288.23V739.549Z" stroke="#101010" stroke-width="2"/>
<path d="M1393.79 739.549H1370.66V762.674H1393.79V739.549Z" fill="#101010"/>
<path d="M1499.34 739.549H1476.21V762.674H1499.34V739.549Z" stroke="#101010" stroke-width="2"/>
<path d="M1604.9 739.549H1581.77V762.674H1604.9V739.549Z" stroke="#101010" stroke-width="2"/>
<path d="M1710.45 739.549H1687.33V762.674H1710.45V739.549Z" fill="#101010"/>
<path d="M1816.01 739.549H1792.88V762.674H1816.01V739.549Z" stroke="#101010" stroke-width="2"/>
<path d="M1921.56 739.549H1898.44V762.674H1921.56V739.549Z" fill="#101010"/>
<path d="M21.5625 845.104H-1.5625V868.229H21.5625V845.104Z" fill="#101010"/>
<path d="M127.118 845.104H103.993V868.229H127.118V845.104Z" fill="#101010"/>
<path d="M232.674 845.104H209.549V868.229H232.674V845.104Z" fill="#101010"/>
<path d="M338.229 845.104H315.104V868.229H338.229V845.104Z" fill="#101010"/>
<path d="M443.785 845.104H420.66V868.229H443.785V845.104Z" fill="#101010"/>
<path d="M549.34 845.104H526.215V868.229H549.34V845.104Z" stroke="#101010" stroke-width="2"/>
<path d="M654.896 845.104H631.771V868.229H654.896V845.104Z" fill="#101010"/>
<path d="M760.451 845.104H737.326V868.229H760.451V845.104Z" stroke="#101010" stroke-width="2"/>
<path d="M866.007 845.104H842.882V868.229H866.007V845.104Z" stroke="#101010" stroke-width="2"/>
<path d="M971.562 845.104H948.438V868.229H971.562V845.104Z" fill="#101010"/>
<path d="M1077.12 845.104H1053.99V868.229H1077.12V845.104Z" fill="#101010"/>
<path d="M1182.67 845.104H1159.55V868.229H1182.67V845.104Z" fill="#101010"/>
<path d="M1288.23 845.104H1265.1V868.229H1288.23V845.104Z" fill="#101010"/>
<path d="M1393.79 845.104H1370.66V868.229H1393.79V845.104Z" fill="#101010"/>
<path d="M1499.34 845.104H1476.21V868.229H1499.34V845.104Z" fill="#101010"/>
<path d="M1604.9 845.104H1581.77V868.229H1604.9V845.104Z" fill="#101010"/>
<path d="M1710.45 845.104H1687.33V868.229H1710.45V845.104Z" stroke="#101010" stroke-width="2"/>
<path d="M1816.01 845.104H1792.88V868.229H1816.01V845.104Z" stroke="#101010" stroke-width="2"/>
<path d="M1921.56 845.104H1898.44V868.229H1921.56V845.104Z" fill="#101010"/>
<path d="M21.5625 950.66H-1.5625V973.785H21.5625V950.66Z" fill="#101010"/>
<path d="M127.118 950.66H103.993V973.785H127.118V950.66Z" fill="#101010"/>
<path d="M232.674 950.66H209.549V973.785H232.674V950.66Z" stroke="#101010" stroke-width="2"/>
<path d="M338.229 950.66H315.104V973.785H338.229V950.66Z" stroke="#101010" stroke-width="2"/>
<path d="M443.785 950.66H420.66V973.785H443.785V950.66Z" fill="#101010"/>
<path d="M549.34 950.66H526.215V973.785H549.34V950.66Z" fill="#101010"/>
<path d="M654.896 950.66H631.771V973.785H654.896V950.66Z" fill="#101010"/>
<path d="M760.451 950.66H737.326V973.785H760.451V950.66Z" fill="#101010"/>
<path d="M866.007 950.66H842.882V973.785H866.007V950.66Z" stroke="#101010" stroke-width="2"/>
<path d="M971.562 950.66H948.438V973.785H971.562V950.66Z" fill="#101010"/>
<path d="M1077.12 950.66H1053.99V973.785H1077.12V950.66Z" fill="#101010"/>
<path d="M1182.67 950.66H1159.55V973.785H1182.67V950.66Z" fill="#101010"/>
<path d="M1288.23 950.66H1265.1V973.785H1288.23V950.66Z" fill="#101010"/>
<path d="M1393.79 950.66H1370.66V973.785H1393.79V950.66Z" fill="#101010"/>
<path d="M1499.34 950.66H1476.21V973.785H1499.34V950.66Z" stroke="#101010" stroke-width="2"/>
<path d="M1604.9 950.66H1581.77V973.785H1604.9V950.66Z" fill="#101010"/>
<path d="M1710.45 950.66H1687.33V973.785H1710.45V950.66Z" fill="#101010"/>
<path d="M1816.01 950.66H1792.88V973.785H1816.01V950.66Z" fill="#101010"/>
<path d="M1921.56 950.66H1898.44V973.785H1921.56V950.66Z" fill="#101010"/>
<path d="M21.5625 1056.22H-1.5625V1079.34H21.5625V1056.22Z" fill="#101010"/>
<path d="M127.118 1056.22H103.993V1079.34H127.118V1056.22Z" fill="#101010"/>
<path d="M232.674 1056.22H209.549V1079.34H232.674V1056.22Z" fill="#101010"/>
<path d="M338.229 1056.22H315.104V1079.34H338.229V1056.22Z" fill="#101010"/>
<path d="M443.785 1056.22H420.66V1079.34H443.785V1056.22Z" fill="#101010"/>
<path d="M549.34 1056.22H526.215V1079.34H549.34V1056.22Z" stroke="#101010" stroke-width="2"/>
<path d="M654.896 1056.22H631.771V1079.34H654.896V1056.22Z" fill="#101010"/>
<path d="M760.451 1056.22H737.326V1079.34H760.451V1056.22Z" fill="#101010"/>
<path d="M866.007 1056.22H842.882V1079.34H866.007V1056.22Z" fill="#101010"/>
<path d="M971.562 1056.22H948.438V1079.34H971.562V1056.22Z" fill="#101010"/>
<path d="M1077.12 1056.22H1053.99V1079.34H1077.12V1056.22Z" fill="#101010"/>
<path d="M1182.67 1056.22H1159.55V1079.34H1182.67V1056.22Z" fill="#101010"/>
<path d="M1288.23 1056.22H1265.1V1079.34H1288.23V1056.22Z" fill="#101010"/>
<path d="M1393.79 1056.22H1370.66V1079.34H1393.79V1056.22Z" fill="#101010"/>
<path d="M1499.34 1056.22H1476.21V1079.34H1499.34V1056.22Z" stroke="#101010" stroke-width="2"/>
<path d="M1604.9 1056.22H1581.77V1079.34H1604.9V1056.22Z" fill="#101010"/>
<path d="M1710.45 1056.22H1687.33V1079.34H1710.45V1056.22Z" fill="#101010"/>
<path d="M1816.01 1056.22H1792.88V1079.34H1816.01V1056.22Z" fill="#101010"/>
<path d="M1921.56 1056.22H1898.44V1079.34H1921.56V1056.22Z" fill="#101010"/>
</g>
<rect y="1080" width="1080" height="1920" transform="rotate(-90 0 1080)" fill="url(#paint0_linear_1195_234)"/>
</g>
<defs>
<linearGradient id="paint0_linear_1195_234" x1="40" y1="2040" x2="747.5" y2="2040" gradientUnits="userSpaceOnUse">
<stop stop-color="#09090B"/>
<stop offset="1" stop-color="#09090B" stop-opacity="0"/>
</linearGradient>
<clipPath id="clip0_1195_234">
<rect width="1920" height="1080" fill="white"/>
</clipPath>
<clipPath id="clip1_1195_234">
<rect width="1900" height="1900" fill="white" transform="translate(10 -410)"/>
</clipPath>
</defs>
</svg>
